ffmpeg started on 2016-12-12 at 00:43:11
Report written to "Output/theora/results/ffmpeg/Tsintel1000k.log"
Command line:
Tools/ffmpeg/ffmpeg -i Output/theora/encoded/sintel1000k.mkv -c:v rawvideo -pix_fmt yuv420p Output/theora/transcoded/sintel1000k.yuv
ffmpeg version N-82227-gdb23fde Copyright (c) 2000-2016 the FFmpeg developers
  built with gcc 5.4.0 (Ubuntu 5.4.0-6ubuntu1~16.04.2) 20160609
  configuration: --prefix=/home/jaroslav/ffmpeg_build --pkg-config-flags=--static --extra-cflags=-I/home/jaroslav/ffmpeg_build/include --extra-ldflags=-L/home/jaroslav/ffmpeg_build/lib --bindir=/home/jaroslav/bin --enable-gpl --enable-libass --enable-libfdk-aac --enable-libfreetype --enable-libmp3lame --enable-libopus --enable-libtheora --enable-libvorbis --enable-libvpx --enable-libx264 --enable-libx265 --enable-nvenc --enable-libmfx --enable-libxvid --enable-libgsm --enable-libopencore-amrnb --enable-version3 --enable-nonfree
  libavutil      55. 35.100 / 55. 35.100
  libavcodec     57. 66.101 / 57. 66.101
  libavformat    57. 57.100 / 57. 57.100
  libavdevice    57.  2.100 / 57.  2.100
  libavfilter     6. 66.100 /  6. 66.100
  libswscale      4.  3.100 /  4.  3.100
  libswresample   2.  4.100 /  2.  4.100
  libpostproc    54.  2.100 / 54.  2.100
Input #0, matroska,webm, from 'Output/theora/encoded/sintel1000k.mkv':
  Metadata:
    ENCODER         : Lavf57.57.100
  Duration: 00:00:20.83, start: 0.000000, bitrate: 1103 kb/s
    Stream #0:0: Video: theora, yuv420p(progressive), 4096x1744 [SAR 1:1 DAR 256:109], 24 fps, 24 tbr, 1k tbn, 24 tbc (default)
    Metadata:
      ENCODER         : Lavc57.66.101 libtheora
      DURATION        : 00:00:20.834000000
Output #0, rawvideo, to 'Output/theora/transcoded/sintel1000k.yuv':
  Metadata:
    encoder         : Lavf57.57.100
    Stream #0:0: Video: rawvideo (I420 / 0x30323449), yuv420p, 4096x1744 [SAR 1:1 DAR 256:109], q=2-31, 200 kb/s, 24 fps, 24 tbn, 24 tbc (default)
    Metadata:
      DURATION        : 00:00:20.834000000
      encoder         : Lavc57.66.101 rawvideo
Stream mapping:
  Stream #0:0 -> #0:0 (theora (native) -> rawvideo (native))
Press [q] to stop, [?] for help
frame=   31 fps=0.0 q=-0.0 size=  324384kB time=00:00:01.29 bitrate=2057305.6kbits/s dup=19 drop=0 speed= 2.1x    frame=   55 fps= 43 q=-0.0 size=  575520kB time=00:00:02.29 bitrate=2057305.8kbits/s dup=39 drop=0 speed=1.81x    frame=   81 fps= 43 q=-0.0 size=  847584kB time=00:00:03.37 bitrate=2057306.1kbits/s dup=61 drop=0 speed= 1.8x    frame=  106 fps= 43 q=-0.0 size= 1109184kB time=00:00:04.41 bitrate=2057306.0kbits/s dup=82 drop=0 speed= 1.8x    frame=  133 fps= 45 q=-0.0 size= 1391712kB time=00:00:05.54 bitrate=2057306.0kbits/s dup=106 drop=0 speed=1.85x    frame=  154 fps= 44 q=-0.0 size= 1611456kB time=00:00:06.41 bitrate=2057306.0kbits/s dup=125 drop=0 speed=1.82x    frame=  174 fps= 43 q=-0.0 size= 1820736kB time=00:00:07.25 bitrate=2057306.1kbits/s dup=142 drop=0 speed=1.77x    frame=  194 fps= 42 q=-0.0 size= 2030016kB time=00:00:08.08 bitrate=2057306.2kbits/s dup=159 drop=0 speed=1.75x    frame=  218 fps= 42 q=-0.0 size= 2281152kB time=00:00:09.08 bitrate=2057306.2kbits/s dup=180 drop=0 speed=1.77x    frame=  259 fps= 44 q=-0.0 size= 2710176kB time=00:00:10.79 bitrate=2057306.0kbits/s dup=217 drop=0 speed=1.84x    frame=  278 fps= 43 q=-0.0 size= 2908992kB time=00:00:11.58 bitrate=2057306.2kbits/s dup=234 drop=0 speed=1.77x    frame=  303 fps= 43 q=-0.0 size= 3170592kB time=00:00:12.62 bitrate=2057306.1kbits/s dup=256 drop=0 speed=1.77x    frame=  327 fps= 41 q=-0.0 size= 3421728kB time=00:00:13.62 bitrate=2057306.1kbits/s dup=278 drop=0 speed=1.73x    frame=  351 fps= 41 q=-0.0 size= 3672864kB time=00:00:14.62 bitrate=2057306.1kbits/s dup=300 drop=0 speed=1.71x    frame=  375 fps= 41 q=-0.0 size= 3924000kB time=00:00:15.62 bitrate=2057306.1kbits/s dup=322 drop=0 speed=1.71x    frame=  387 fps= 39 q=-0.0 size= 4049568kB time=00:00:16.12 bitrate=2057306.1kbits/s dup=331 drop=0 speed=1.64x    frame=  426 fps= 40 q=-0.0 size= 4457664kB time=00:00:17.75 bitrate=2057306.1kbits/s dup=366 drop=0 speed=1.69x    frame=  435 fps= 39 q=-0.0 size= 4551840kB time=00:00:18.12 bitrate=2057306.1kbits/s dup=373 drop=0 speed=1.61x    frame=  459 fps= 39 q=-0.0 size= 4802976kB time=00:00:19.12 bitrate=2057306.1kbits/s dup=395 drop=0 speed=1.61x    frame=  470 fps= 37 q=-0.0 size= 4918080kB time=00:00:19.58 bitrate=2057306.1kbits/s dup=405 drop=0 speed=1.55x    frame=  495 fps= 37 q=-0.0 size= 5179680kB time=00:00:20.62 bitrate=2057306.1kbits/s dup=427 drop=0 speed=1.54x    frame=  505 fps= 36 q=-0.0 Lsize= 5284320kB time=00:00:21.04 bitrate=2057306.1kbits/s dup=437 drop=0 speed= 1.5x    
video:5284320kB audio:0kB subtitle:0kB other streams:0kB global headers:0kB muxing overhead: 0.000000%
